HIERARCHY
ROOT pelvis
{
  OFFSET 0 100 0
  CHANNELS 6 Xposition Yposition Zposition Zrotation Xrotation Yrotation
  JOINT pelvis_right_femur
  {
    OFFSET -10.78128 -3.44521 -0.5502486
    CHANNELS 3 Zrotation Xrotation Yrotation
    JOINT right_femur_tibia
    {
      OFFSET -0.8047443 -44.0398 -0.1307829
      CHANNELS 3 Zrotation Xrotation Yrotation
      JOINT right_tibia_foot
      {
        OFFSET 3.006224 -47.83518 -5
        CHANNELS 3 Zrotation Xrotation Yrotation
        End Site
        {
          OFFSET 0 -5 15
        }
      }
    }
  }
  JOINT pelvis_left_femur
  {
    OFFSET 10.78128 -3.44521 -0.5502486
    CHANNELS 3 Zrotation Xrotation Yrotation
    JOINT left_femur_tibia
    {
      OFFSET 0.8047443 -44.0398 -0.1307829
      CHANNELS 3 Zrotation Xrotation Yrotation
      JOINT left_tibia_foot
      {
        OFFSET -4.370144 -48.10324 -4.275266
        CHANNELS 3 Zrotation Xrotation Yrotation
        End Site
        {
          OFFSET 0 -5 15
        }
      }
    }
  }
  JOINT pelvis_spine1
  {
    OFFSET 0 6.468898 -3.129235
    CHANNELS 3 Zrotation Xrotation Yrotation
    JOINT spine1
    {
      OFFSET 0 23.15396 4.99043
      CHANNELS 3 Zrotation Xrotation Yrotation
      JOINT spine2
      {
        OFFSET 0 20.79997 -5.064912
        CHANNELS 3 Zrotation Xrotation Yrotation
        JOINT neck
        {
          OFFSET 0 14.38658 9.616178
          CHANNELS 3 Zrotation Xrotation Yrotation
          End Site
          {
            OFFSET 0 20 0
          }
        }
      }
      JOINT right_manubrium
      {
        OFFSET -5.722621 16.35077 3.967754
        CHANNELS 3 Zrotation Xrotation Yrotation
        JOINT right_clavicle
        {
          OFFSET -13.16364 1.694482 -4.693211
          CHANNELS 3 Zrotation Xrotation Yrotation
          JOINT right_humerus
          {
            OFFSET -28.5034 -0.3100689 -2.792744
            CHANNELS 3 Zrotation Xrotation Yrotation
            JOINT right_radius
            {
              OFFSET -25.15693 0.02248979 -1.271978
              CHANNELS 3 Zrotation Xrotation Yrotation
              End Site
              {
                OFFSET -15 0 0
              }
            }
          }
        }
      }
      JOINT left_manubrium
      {
        OFFSET 5.722621 16.35077 3.967754
        CHANNELS 3 Zrotation Xrotation Yrotation
        JOINT left_clavicle
        {
          OFFSET 13.16364 1.694482 -4.693211
          CHANNELS 3 Zrotation Xrotation Yrotation
          JOINT left_humerus
          {
            OFFSET 29.39168 -1.063119 -2.237045
            CHANNELS 3 Zrotation Xrotation Yrotation
            JOINT left_radius
            {
              OFFSET 24.59957 -0.9528479 0.9047498
              CHANNELS 3 Zrotation Xrotation Yrotation
              End Site
              {
                OFFSET 15 -0 -0
              }
            }
          }
        }
      }
    }
  }
}
MOTION
Frames: 23
Frame Time: 0.0416666666667
821.79 103.0501 3068.496 4.003296 -6.128163 20.81443 0.05613914 -1.58711 3.909488 -0 55.33581 -0 1.495817 5.975152 -5.022382 -5.477979 -3.655965 -8.429008 -0 18.39162 -0 -2.338364 -12.20353 17.22021 0.8134763 -1.249324 6.338808 -1.430621 13.68228 -4.110055 2.686522 22.06471 3.180872 0.210446 -18.28455 6.854697 -4.123189 -24.71493 10.91739 93.17966 15.52451 -13.13079 -0 0 19.44054 -22.2398 11.21027 13.91153 2.263981 -19.89025 -7.209997 -92.07791 19.77268 27.24395 0 0 -16.02466 -0.3632832 10.07349 16.54228
824.4727 103.6838 3073.579 3.90873 -6.549821 22.02465 0.2613387 -8.301779 3.091636 -0 50.65305 -0 0.7551549 4.423849 -6.006336 -5.292492 1.446447 -8.302468 -0 16.12484 -0 -2.181309 -13.89399 16.6991 0.7906808 -1.151463 6.017325 -1.492469 13.51554 -4.177362 2.772505 22.36822 3.375909 0.3060021 -18.05459 7.085931 -4.000837 -23.75088 10.81644 93.80257 15.69289 -14.25824 -0 0 17.7466 -21.93296 10.76199 13.38588 2.332946 -20.3656 -7.42572 -91.10022 20.33729 25.21886 0 0 -17.59753 -0.2441173 10.00814 16.65851
827.0228 103.6217 3078.61 3.887877 -6.70214 23.01655 0.2939106 -14.21547 2.126908 -0 41.85197 -0 0.2226116 2.605245 -6.824675 -5.080677 6.120826 -8.069332 -0 14.36826 -0 -2.508531 -15.89911 15.98346 0.8076905 -1.105417 5.726133 -1.572788 13.31539 -4.252385 2.864407 22.59902 3.518686 0.3778704 -17.79192 7.283445 -3.892314 -22.8622 10.67354 94.36895 15.93841 -15.3019 -0 0 16.23685 -21.63347 10.40383 12.91442 2.427088 -20.88257 -7.583474 -90.05119 20.77569 23.23461 0 0 -19.29107 -0.0735696 10.01447 16.70553
829.5351 102.9453 3083.824 3.848646 -6.338164 23.75554 0.2192408 -19.00014 1.088765 -0 31.24445 -0 0.1705841 1.121734 -7.333285 -5.011711 10.14785 -7.788266 -0 13.65001 -0 -3.214336 -17.86439 15.01953 0.8503947 -1.100286 5.474293 -1.664741 13.09015 -4.322277 2.960194 22.76947 3.609307 0.4280353 -17.53202 7.446124 -3.81297 -22.08083 10.49935 94.85972 16.24765 -16.20138 -0 0 14.94653 -21.35429 10.12063 12.50715 2.544984 -21.40153 -7.670586 -89.01771 21.09005 21.39085 0 0 -20.94797 0.1563174 10.10663 16.65366
832.0857 101.8964 3089.39 3.723459 -5.546837 24.30806 0.2141909 -22.47471 0.314243 -0 21.59089 -0 0.5831441 0.3480393 -7.575611 -5.073742 13.38282 -7.4469 -0 14.41149 -0 -4.040891 -19.18938 13.94115 0.8974957 -1.120344 5.269953 -1.747794 12.86642 -4.382545 3.048863 22.89296 3.657501 0.4606678 -17.32366 7.571275 -3.772152 -21.45008 10.32148 95.25358 16.56649 -16.90641 -0 0 13.91442 -21.11678 9.90018 12.17567 2.675059 -21.86598 -7.690219 -88.11709 21.29539 19.82543 0 0 -22.36967 0.4274062 10.26947 16.49862
834.707 100.761 3095.407 3.539295 -4.73061 24.7559 0.4977298 -24.42085 0.2034284 -0 14.68465 -0 1.258577 0.1648071 -7.813002 -5.09906 15.88293 -7.047492 -0 17.05654 -0 -5.010165 -19.40312 12.93193 0.9313085 -1.15149 5.123745 -1.796905 12.69471 -4.436587 3.111877 22.9747 3.679866 0.4796881 -17.21034 7.653657 -3.768851 -21.02381 10.18337 95.53733 16.81424 -17.39214 -0 0 13.18316 -20.94972 9.744799 11.94004 2.787931 -22.2212 -7.672857 -87.46826 21.40135 18.70434 0 0 -23.38263 0.6910836 10.45257 16.28197
837.3787 99.84132 3101.906 3.3184 -4.290121 25.10729 1.284231 -24.52526 1.004331 -0 11.26032 -0 1.855682 0.081404 -8.229988 -4.883805 17.67111 -6.691051 -0 22.03461 -0 -6.307978 -18.22568 12.19807 0.9497986 -1.184812 5.054843 -1.801962 12.63832 -4.48299 3.132166 23.00574 3.689629 0.4868506 -17.20673 7.685339 -3.791704 -20.86008 10.1307 95.70392 16.92521 -17.64335 -0 0 12.8125 -20.8853 9.678177 11.83578 2.839497 -22.42744 -7.66873 -87.16592 21.39513 18.20556 0 0 -23.88138 0.8789693 10.58797 16.09158
840.0212 99.448 3108.784 3.013134 -4.476939 25.25747 2.691552 -22.55606 2.685556 -0 11.60597 -0 1.817995 -0.5875743 -8.728454 -4.294415 18.33555 -6.588401 -0 29.68014 -0 -7.810521 -15.59337 12.10904 0.965283 -1.215488 5.092125 -1.773455 12.75141 -4.50743 3.101424 22.96453 3.686445 0.4801066 -17.29652 7.654997 -3.825363 -21.01716 10.19652 95.73599 16.87255 -17.62147 -0 0 12.89847 -20.95231 9.742431 11.91087 2.786038 -22.45255 -7.721442 -87.28151 21.24327 18.50692 0 0 -23.80073 0.9209761 10.61641 16.03183
842.5326 99.78722 3115.741 2.656273 -5.338243 25.04794 4.419229 -18.77098 4.589942 -0 14.92915 -0 0.5377132 -2.309193 -8.883641 -3.472001 17.00819 -6.903195 -0 39.46778 -0 -8.865372 -12.09749 13.01792 0.9922848 -1.245069 5.264047 -1.727032 13.05427 -4.493277 3.020388 22.82231 3.653128 0.452676 -17.4546 7.547395 -3.861476 -21.54581 10.38945 95.5955 16.66351 -17.25876 -0 0 13.56363 -21.16507 9.98751 12.20669 2.608446 -22.26862 -7.83634 -87.85969 20.90315 19.74304 0 0 -23.08892 0.7760531 10.51484 16.1616
844.8867 100.7863 3122.417 2.569711 -6.639862 24.45674 5.677529 -13.88043 5.668731 -0 18.59047 -0 -1.660048 -4.743775 -8.327491 -2.890234 13.06131 -7.456921 -0 49.32012 -0 -9.016368 -9.085421 14.63792 1.038448 -1.288477 5.576761 -1.66759 13.50216 -4.441433 2.899103 22.55353 3.559511 0.394384 -17.66498 7.348911 -3.907445 -22.45487 10.67625 95.23787 16.34126 -16.50031 -0 0 14.88894 -21.50623 10.44873 12.72439 2.340879 -21.87835 -7.955788 -88.86583 20.34114 21.88394 0 0 -21.76523 0.4773265 10.32971 16.42111
847.1514 102.1083 3128.636 2.970561 -7.728181 23.67742 5.91332 -8.433642 5.800811 -0 19.73941 -0 -2.990956 -7.085122 -7.263932 -2.774794 6.758304 -7.767309 -0 56.31186 -0 -8.891998 -7.523806 16.05209 1.104817 -1.369928 5.997874 -1.594481 13.9757 -4.372851 2.758821 22.15365 3.376935 0.2968509 -17.90596 7.061059 -3.97687 -23.66617 10.97497 94.63937 15.98861 -15.35856 -0 0 16.83486 -21.92135 11.11555 13.40619 2.070704 -21.33519 -7.974865 -90.13685 19.57332 24.63752 0 0 -19.99459 0.1257144 10.1666 16.65416
849.3775 103.3521 3134.431 3.540227 -7.970912 22.89092 5.374049 -2.868662 5.692422 -0 17.81948 -0 -2.519009 -8.89773 -6.083098 -2.733184 -0.9302176 -7.509813 -0 58.72473 -0 -9.042249 -7.154314 16.8468 1.198522 -1.511298 6.478146 -1.518738 14.35216 -4.309753 2.621638 21.63482 3.098394 0.1608225 -18.12982 6.701606 -4.066297 -25.04631 11.19923 93.81459 15.69246 -13.92305 -0 0 19.26214 -22.3553 11.94446 14.17948 1.879331 -20.72537 -7.820487 -91.44389 18.6591 27.59882 0 0 -18.06759 -0.1946583 10.10535 16.75561
851.5615 104.1709 3139.901 3.922935 -7.600687 22.14529 4.683302 2.323832 5.488429 -0 14.48104 -0 -1.485731 -10.45296 -4.912086 -2.264296 -8.711773 -6.736503 -0 56.62493 -0 -9.069118 -7.305492 17.41253 1.341584 -1.731211 6.982689 -1.454208 14.59539 -4.275244 2.493019 20.99883 2.740681 -0.003860807 -18.28983 6.28657 -4.153153 -26.49477 11.31722 92.82121 15.49398 -12.33599 -0 0 22.00912 -22.78964 12.91892 15.00778 1.788034 -20.14759 -7.510284 -92.59907 17.62507 30.48952 0 0 -16.30857 -0.4532945 10.15896 16.72682
853.7149 104.3589 3145.151 3.948042 -7.113693 21.43407 4.297195 6.811552 5.08679 -0 11.51235 -0 -0.9675822 -12.2094 -3.787313 -1.171075 -15.57848 -5.564141 -0 50.67242 -0 -8.618019 -7.526685 18.07329 1.540885 -2.023244 7.472845 -1.400934 14.72366 -4.290328 2.369904 20.27422 2.342881 -0.1787363 -18.37203 5.841742 -4.213437 -27.91317 11.34091 91.75439 15.38429 -10.76883 -0 0 24.84803 -23.21586 14.00395 15.84755 1.781828 -19.67691 -7.113445 -93.4904 16.52263 33.10832 0 0 -14.93985 -0.6435412 10.30774 16.60416
855.9085 103.8927 3150.311 3.50854 -6.556255 20.72452 4.29299 10.46983 4.58355 -0 9.763034 -0 -0.8777291 -14.24278 -2.715686 0.3884342 -21.05904 -4.146232 -0 41.72576 -0 -7.81163 -7.572654 18.78511 1.750499 -2.327743 7.88477 -1.354601 14.74395 -4.343061 2.261523 19.58297 1.974262 -0.334452 -18.39958 5.433861 -4.243866 -29.13016 11.29174 90.75236 15.33246 -9.402094 -0 0 27.39673 -23.59535 15.02627 16.59228 1.843541 -19.32683 -6.700613 -94.09537 15.53801 35.20312 0 0 -13.98078 -0.7645182 10.51056 16.42486
858.2553 102.9196 3155.541 2.672418 -5.7384 20.00409 4.366268 13.3802 4.062494 -0 9.472692 -0 -0.8729728 -16.18124 -1.610113 1.855925 -24.96927 -2.952472 -0 31.47507 -0 -6.940794 -7.381233 19.33388 1.8852 -2.553611 8.153602 -1.317198 14.65705 -4.384491 2.189692 19.10824 1.714124 -0.443124 -18.41911 5.154561 -4.270722 -29.95319 11.19503 89.97786 15.30908 -8.385596 -0 0 29.21843 -23.86352 15.70248 17.10476 1.950857 -19.05811 -6.331032 -94.4777 14.92506 36.54188 0 0 -13.28427 -0.8207267 10.70021 16.22967
860.8547 101.699 3161.007 1.827979 -4.713583 19.31995 4.044054 15.79101 3.572909 -0 10.71065 -0 -0.8406419 -17.17219 -0.4863737 2.475753 -27.18572 -2.61908 -0 22.57108 -0 -6.193344 -7.098621 19.64666 1.884983 -2.636211 8.250288 -1.293361 14.49069 -4.371722 2.170088 18.97167 1.609134 -0.4920637 -18.46587 5.06138 -4.32051 -30.28073 11.08409 89.55112 15.2988 -7.804235 -0 0 30.04609 -23.97147 15.84145 17.30097 2.070002 -18.83493 -6.054345 -94.71727 14.82249 37.04509 0 0 -12.71151 -0.8233276 10.81307 16.05833
863.7374 100.4904 3166.822 1.495671 -3.961277 18.72905 3.120103 17.85389 3.24418 -0 13.59233 -0 -0.8435106 -16.1714 0.3444331 1.880292 -27.64967 -3.368457 -0 17.35661 -0 -5.590119 -7.010818 19.94386 1.762091 -2.571492 8.191992 -1.284463 14.30483 -4.304341 2.198663 19.15413 1.653377 -0.4828366 -18.53693 5.142339 -4.385944 -30.14524 10.9956 89.49627 15.29798 -7.672734 -0 0 29.8968 -23.92188 15.49228 17.19669 2.164805 -18.66744 -5.91056 -94.84161 15.16443 36.81574 0 0 -12.26604 -0.7898913 10.82775 15.94467
866.8696 99.51181 3173.014 1.873586 -3.879734 18.27995 1.825964 19.28305 3.295119 -0 18.40476 -0 -0.8033721 -12.65953 0.54721 0.4081137 -26.55153 -4.712677 -0 16.22922 -0 -4.989391 -7.271382 20.36226 1.578853 -2.403815 8.024203 -1.287768 14.1569 -4.215233 2.256989 19.53612 1.804199 -0.4265487 -18.60438 5.337152 -4.437237 -29.67162 10.95251 89.74824 15.30387 -7.940606 -0 0 29.0066 -23.76094 14.86925 16.87963 2.214622 -18.59194 -5.914281 -94.83522 15.7629 36.06139 0 0 -12.04594 -0.7393507 10.76517 15.90807
870.2039 99.00206 3179.519 2.701205 -4.284928 18.0693 0.5403115 19.43555 3.835435 -0 25.55244 -0 -0.4339822 -7.044544 0.09784777 -1.354218 -24.22019 -5.980953 -0 17.75129 -0 -4.212209 -7.744839 20.57654 1.389383 -2.18582 7.789771 -1.298951 14.06431 -4.136169 2.327819 20.00205 2.016259 -0.3381052 -18.64609 5.587544 -4.455093 -28.9896 10.95186 90.20917 15.31281 -8.517871 -0 0 27.65078 -23.53833 14.16059 16.43996 2.223445 -18.62634 -6.044293 -94.68397 16.46044 34.96635 0 0 -12.11657 -0.6825772 10.65869 15.94368
873.6728 99.17611 3186.15 3.555372 -4.748917 18.2237 -0.3812651 17.7369 4.592744 -0 34.89133 -0 0.3780387 -0.7329234 -0.8390009 -3.022132 -20.85446 -6.919768 -0 20.0093 -0 -3.402834 -8.321115 20.15379 1.214518 -1.949614 7.510035 -1.315661 14.006 -4.080319 2.403553 20.49563 2.264202 -0.2277506 -18.65265 5.864944 -4.436294 -28.16891 10.97335 90.80173 15.32499 -9.325264 -0 0 26.00305 -23.28079 13.44232 15.92663 2.211075 -18.76333 -6.262335 -94.38334 17.19774 33.611 0 0 -12.48389 -0.6220238 10.53 16.03403
877.1482 100.0509 3192.611 4.10595 -5.09859 18.81912 -0.6878738 13.98567 5.025125 -0 44.8274 -0 1.359188 4.187038 -2.067927 -4.359145 -16.56455 -7.625947 -0 21.40552 -0 -2.948546 -9.120785 19.15631 1.058729 -1.712583 7.192678 -1.338009 13.9481 -4.050924 2.482716 20.99465 2.535352 -0.1015932 -18.61651 6.158368 -4.382046 -27.23593 10.99263 91.47264 15.34639 -10.30813 -0 0 24.15783 -22.99781 12.73225 15.36062 2.200316 -18.98987 -6.530866 -93.92461 17.96596 32.00672 0 0 -13.14274 -0.5573586 10.39005 16.16261
880.4781 101.3629 3198.649 4.257745 -5.431101 19.81496 -0.4774399 8.458496 4.853879 -0 52.56715 -0 1.942487 6.434717 -3.345307 -5.190586 -11.56706 -8.157847 -0 21.14829 -0 -2.78404 -10.20607 18.14388 0.9304312 -1.49478 6.850617 -1.36734 13.86631 -4.051726 2.563898 21.46989 2.811391 0.03062687 -18.52754 6.452784 -4.294971 -26.22937 10.98944 92.17228 15.38838 -11.40964 -0 0 22.22427 -22.69789 12.06021 14.76867 2.207528 -19.29741 -6.815684 -93.29952 18.73583 30.18736 0 0 -14.09485 -0.4877296 10.24983 16.31403
